<svg xmlns="http://www.w3.org/2000/svg" version="1.1" xmlns:xlink="http://www.w3.org/1999/xlink" xmlns:svgjs="http://svgjs.dev/svgjs" width="1500" height="1500" viewBox="0 0 1500 1500"><rect width="1500" height="1500" fill="#575c5f"></rect><g transform="matrix(0.6666666666666666,0,0,0.6666666666666666,249.39393939393938,546.9032717735727)"><svg viewBox="0 0 396 161" data-background-color="#575c5f" preserveAspectRatio="xMidYMid meet" height="609" width="1500" xmlns="http://www.w3.org/2000/svg" xmlns:xlink="http://www.w3.org/1999/xlink"><g id="tight-bounds" transform="matrix(1,0,0,1,0.2400000000000091,0.03835774496256761)"><svg viewBox="0 0 395.52 160.92328451007486" height="160.92328451007486" width="395.52"><g><svg viewBox="0 0 689.7376782141125 280.6301896960156" height="160.92328451007486" width="395.52"><g transform="matrix(1,0,0,1,292.24007821411254,0)"><svg viewBox="0 0 397.4975999999999 280.6301896960156" height="280.6301896960156" width="397.4975999999999"><g id="textblocktransform"><svg viewBox="0 0 397.4975999999999 280.6301896960156" height="280.6301896960156" width="397.4975999999999" id="textblock"><g><rect width="397.4975999999999" height="17.79606646019102" x="0" y="218.30108734768353" fill="#dedad7" opacity="1" stroke-width="0" stroke="transparent" fill-opacity="1" class="rect-qz-0" data-fill-palette-color="primary" rx="1%" id="qz-0" data-palette-color="#dedad7"></rect></g><g transform="matrix(1,0,0,1,0.9887999999999693,0)"><svg viewBox="0 0 395.52 197.33713471133285" height="197.33713471133285" width="395.52"><g transform="matrix(1,0,0,1,0,0)"><svg width="395.52" viewBox="1.15 -34.4 70.14999999999999 35" height="197.33713471133285" data-palette-color="#dedad7"><path d="M29.65-11.95Q29.65-5.5 25.98-2.45 22.3 0.6 15.4 0.6L15.4 0.6Q8.5 0.6 4.83-2.45 1.15-5.5 1.15-11.95L1.15-11.95 1.15-12.4 11.5-12.4 11.5-12Q11.5-9.65 12.38-8.65 13.25-7.65 15.05-7.65L15.05-7.65Q16.85-7.65 17.73-8.65 18.6-9.65 18.6-12L18.6-12 18.6-34.4 29.65-34.4 29.65-11.95ZM71.3 0L61.65 0 47.2-16.7 47.2 0 37.05 0 37.05-34.4 46.7-34.4 61.15-17.45 61.15-34.4 71.3-34.4 71.3 0Z" opacity="1" transform="matrix(1,0,0,1,0,0)" fill="#dedad7" class="wordmark-text-0" data-fill-palette-color="primary" id="text-0"></path></svg></g></svg></g><g transform="matrix(1,0,0,1,0,257.06110644422523)"><svg viewBox="0 0 232.20979199999996 23.569083251790317" height="23.569083251790317" width="232.20979199999996"><g transform="matrix(1,0,0,1,0,0)"><svg width="232.20979199999996" viewBox="1.5 -38.25 523.6 53.15" height="23.569083251790317" data-palette-color="#dedad7"><path d="M16.5 0.3L16.5 0.3Q8.75 0.3 5.13-3.65 1.5-7.6 1.5-14.08 1.5-20.55 3.73-25.88 5.95-31.2 10.35-34.63 14.75-38.05 19.88-38.05 25-38.05 27.93-35.58 30.85-33.1 30.85-28.93 30.85-24.75 28.28-22 25.7-19.25 22.25-19.25 18.8-19.25 16.9-20.78 15-22.3 15-24.03 15-25.75 16.38-26.73 17.75-27.7 20.4-27.7L20.4-27.7Q19.75-27.05 19.75-25.98 19.75-24.9 20.4-24.1 21.05-23.3 22.4-23.3 23.75-23.3 25.1-24.73 26.45-26.15 26.45-28.5 26.45-30.85 25.03-32.25 23.6-33.65 21-33.65L21-33.65Q17.6-33.65 14.83-30.9 12.05-28.15 10.6-23.9 9.15-19.65 9.15-14.95L9.15-14.95Q9.15-10.9 10.9-7.8L10.9-7.8Q11.8-6.2 13.58-5.25 15.35-4.3 17.75-4.3L17.75-4.3Q21.85-4.3 25.65-6.93 29.45-9.55 32.05-13.7L32.05-13.7 33.75-10.65Q30.8-5.85 26.35-2.78 21.9 0.3 16.5 0.3ZM44.05-5.7L44.05-5.7 45.25-16.75Q45.25-18.1 44.55-19 43.85-19.9 42.3-19.9 40.75-19.9 39.67-18.68 38.6-17.45 38.1-15.45L38.1-15.45Q37.75-12.6 37.05-7.13 36.35-1.65 36.15 0L36.15 0 29.5 0Q33.1-30.65 33.85-37.65L33.85-37.65Q34.9-38.05 36.7-38.05L36.7-38.05Q40.6-38.05 40.6-35.75L40.6-35.75 40.6-35.45Q39.75-27.6 38.8-21.65L38.8-21.65Q41.45-24.05 44.8-24.05 48.15-24.05 50.1-22.35 52.05-20.65 52.05-18.05L52.05-18.05Q52.05-17.35 51.75-15.45L51.75-15.45Q50.6-7.95 50.6-6.65L50.6-6.65Q50.6-4.3 52.15-4.3L52.15-4.3Q53.45-4.3 54.92-6.03 56.4-7.75 57.3-11.35L57.3-11.35Q59-9.55 59.35-8.5L59.35-8.5Q56.75 0.2 50.15 0.2L50.15 0.2Q47.05 0.2 45.55-1.7 44.05-3.6 44.05-5.7ZM70-17.5L70-17.5Q70-19.7 67.97-19.7 65.94-19.7 64.75-17.1L64.75-17.1Q70.14-12.85 70.14-7.55L70.14-7.55Q70.14-3.7 68-1.7 65.84 0.3 62.59 0.3 59.34 0.3 57.84-1.73 56.34-3.75 56.34-6.85L56.34-6.85Q56.34-7.8 56.39-8.25L56.39-8.25 58.14-23.5Q59.95-24.05 61.8-24.05L61.8-24.05Q64.84-24.05 64.84-21.8L64.84-21.8 64.84-21.7Q66.84-24.05 69.94-24.05L69.94-24.05Q72.19-24.05 73.44-23.03 74.69-22 74.69-20.3 74.69-18.6 73.42-17.53 72.14-16.45 70.09-16.45L70.09-16.45Q70-16.45 69.89-16.45L69.89-16.45Q70-17 70-17.5ZM66.89-7.8Q66.89-10.7 63.89-13.6L63.89-13.6Q62.99-6.4 62.99-6.35L62.99-6.35Q62.99-4.25 64.69-4.25L64.69-4.25Q66.89-4.25 66.89-7.8L66.89-7.8ZM79.64-36.83Q80.79-38 82.44-38 84.09-38 85.27-36.83 86.44-35.65 86.44-34 86.44-32.35 85.27-31.2 84.09-30.05 82.44-30.05 80.79-30.05 79.64-31.2 78.49-32.35 78.49-34 78.49-35.65 79.64-36.83ZM77.59-22.15Q78.09-23.05 79.49-23.53 80.89-24 82.27-24 83.64-24 84.69-23.65L84.69-23.65Q82.74-8.6 82.74-8.45L82.74-8.45Q82.49-7.45 82.49-6.78 82.49-6.1 82.59-5.6L82.59-5.6Q82.79-4.3 84.42-4.3 86.04-4.3 87.42-6.43 88.79-8.55 89.49-11.25L89.49-11.25Q89.84-11.05 90.59-10.05 91.34-9.05 91.49-8.55L91.49-8.55Q90.49-4.55 88.09-2.1L88.09-2.1Q85.69 0.35 82.34 0.35 78.99 0.35 77.37-1.3 75.74-2.95 75.74-5.55L75.74-5.55Q75.74-6.1 75.79-6.7L75.79-6.7 77.59-22.15ZM108.24-15.3L108.24-15.3Q112.19-12.4 112.19-8.45 112.19-4.5 109.09-2.1 105.99 0.3 101.29 0.3L101.29 0.3Q98.24 0.3 96.22-1.23 94.19-2.75 94.19-5 94.19-7.25 95.69-8.58 97.19-9.9 99.44-10.2L99.44-10.2Q98.39-8.7 98.39-7.33 98.39-5.95 99.34-5.1L99.34-5.1Q100.29-4.25 101.74-4.25 103.19-4.25 104.14-5.33 105.09-6.4 105.09-7.8L105.09-7.8Q105.09-10.1 102.94-11.9L102.94-11.9Q101.64-12.95 100.14-13.88 98.64-14.8 98.54-14.85L98.54-14.85Q98.34-15 98.14-15.1L98.14-15.1Q97.24-14.05 95.54-12.23 93.84-10.4 92.84-9.3L92.84-9.3Q90.04-6.25 89.69-4.2L89.69-4.2Q89.59-3.8 89.59-2.68 89.59-1.55 90.27-0.35 90.94 0.85 91.89 1.45 92.84 2.05 93.77 2.43 94.69 2.8 95.36 2.95 96.04 3.1 96.04 3.15L96.04 3.15Q96.04 3.5 94.94 3.95L94.94 3.95Q92.89 4.7 90.66 4.7 88.44 4.7 86.34 3.1L86.34 3.1Q83.49 0.9 83.49-2.75L83.49-2.75Q83.49-5 84.64-7.2L84.64-7.2Q86.69-11.1 94.24-17.9L94.24-17.9Q92.39-19.75 92.39-21.85 92.39-23.95 93.96-25.4 95.54-26.85 97.69-26.85L97.69-26.85Q99.64-26.85 101.09-25.3L101.09-25.3Q102.04-24.25 102.04-22.65 102.04-21.05 100.99-19.05L100.99-19.05Q106.34-16.65 108.24-15.3ZM97.39-20.95L97.39-20.95Q98.59-22.2 98.59-22.75L98.59-22.75Q98.59-24 97.49-24.1L97.49-24.1Q96.24-24.1 96.24-22.7L96.24-22.7Q96.24-21.85 97.39-20.95ZM124.44-34.8L124.44-34.8Q124.44-34.5 123.09-24.05L123.09-24.05 130.44-24.05 130.44-20.2 122.59-20.2 122.44-18.95Q128.29-14.05 128.29-8.25L128.29-8.25Q128.29-3.7 125.96-1.7 123.64 0.3 120.39 0.3 117.14 0.3 115.64-1.43 114.14-3.15 114.14-5.6L114.14-5.6Q114.14-6.15 114.24-6.8L114.24-6.8 115.79-20.1 115.59-20.2 111.54-20.2Q111.49-20.7 111.49-21.83 111.49-22.95 111.94-24.05L111.94-24.05 116.24-24.05 117.84-37.65Q118.89-38.05 120.64-38.05L120.64-38.05Q124.44-38.05 124.44-34.8ZM124.94-8.3L124.94-8.3Q124.94-11.75 121.94-15.1L121.94-15.1Q121.04-7.65 121.04-6.5L121.04-6.5Q121.04-4.25 122.49-4.25L122.49-4.25Q123.54-4.25 124.24-5.23 124.94-6.2 124.94-8.3ZM134.13-36.83Q135.28-38 136.94-38 138.59-38 139.76-36.83 140.94-35.65 140.94-34 140.94-32.35 139.76-31.2 138.59-30.05 136.94-30.05 135.28-30.05 134.13-31.2 132.99-32.35 132.99-34 132.99-35.65 134.13-36.83ZM132.09-22.15Q132.59-23.05 133.99-23.53 135.38-24 136.76-24 138.13-24 139.19-23.65L139.19-23.65Q137.24-8.6 137.24-8.45L137.24-8.45Q136.99-7.45 136.99-6.78 136.99-6.1 137.09-5.6L137.09-5.6Q137.28-4.3 138.91-4.3 140.53-4.3 141.91-6.43 143.28-8.55 143.99-11.25L143.99-11.25Q144.34-11.05 145.09-10.05 145.84-9.05 145.99-8.55L145.99-8.55Q144.99-4.55 142.59-2.1L142.59-2.1Q140.19 0.35 136.84 0.35 133.49 0.35 131.86-1.3 130.24-2.95 130.24-5.55L130.24-5.55Q130.24-6.1 130.28-6.7L130.28-6.7 132.09-22.15ZM164.13 0.25L164.13 0.25Q159.53 0.25 158.03-2.95L158.03-2.95Q155.43 0.3 151.36 0.3 147.28 0.3 144.51-2.45 141.73-5.2 141.73-9.7L141.73-9.7Q141.73-16.25 145.58-20.15 149.43-24.05 155.33-24.05L155.33-24.05Q155.48-24.05 155.63-24.05L155.63-24.05Q158.13-24.05 160.23-23.2L160.23-23.2Q161.58-24.05 163.51-24.05 165.43-24.05 166.28-23.55L166.28-23.55Q165.83-19.85 165.33-16.28 164.83-12.7 164.63-11.2L164.63-11.2Q164.18-7.8 164.18-6.3L164.18-6.3Q164.18-4.3 165.78-4.3L165.78-4.3Q167.03-4.3 168.43-5.98 169.83-7.65 170.88-11.25L170.88-11.25Q172.33-9.95 172.88-8.35L172.88-8.35Q171.43-3.6 168.98-1.68 166.53 0.25 164.13 0.25ZM156.08-20.15L156.08-20.15Q152.88-20.15 151.01-17.73 149.13-15.3 148.78-10.5L148.78-10.5Q148.73-10.05 148.73-9.65L148.73-9.65Q148.73-7.2 149.91-5.75 151.08-4.3 152.93-4.3L152.93-4.3Q156.08-4.3 157.68-8.75L157.68-8.75 158.88-19.55Q157.43-20.15 156.08-20.15ZM183.53-5.6L183.53-5.6 184.73-16.75Q184.73-18.1 184.03-19 183.33-19.9 181.71-19.9 180.08-19.9 178.96-18.48 177.83-17.05 177.53-14.9L177.53-14.9Q175.73-1.2 175.63 0L175.63 0 168.88 0 171.63-23.55Q173.73-24.1 174.83-24.1L174.83-24.1Q178.18-24.1 178.33-21.65L178.33-21.65Q180.78-24.05 184.21-24.05 187.63-24.05 189.58-22.35 191.53-20.65 191.53-18.05L191.53-18.05Q191.53-17.35 191.23-15.4L191.23-15.4Q190.08-7.8 190.08-6.55L190.08-6.55Q190.08-4.25 191.63-4.25L191.63-4.25Q195.03-4.25 196.78-11.35L196.78-11.35Q198.48-9.55 198.83-8.5L198.83-8.5Q196.18 0.3 189.63 0.3L189.63 0.3Q186.53 0.3 185.03-1.6 183.53-3.5 183.53-5.6ZM206.83-26.8L206.83-26.8Q206.83-32.15 211.48-35.2 216.13-38.25 222.18-38.25L222.18-38.25Q229.93-38.25 235.78-33.8L235.78-33.8Q238.68-31.55 240.28-27.83 241.88-24.1 241.88-19.6L241.88-19.6Q241.88-10.75 236.83-5.2L236.83-5.2Q231.58 0.45 223.68 0.45L223.68 0.45Q221.93 0.45 219.98 0 218.03-0.45 216.88-1.2L216.88-1.2Q215.03 0.2 212.15 0.2 209.28 0.2 207.68-1.4 206.08-3 206.08-5.5L206.08-5.5Q206.08-11.4 215.03-15.55L215.03-15.55Q215.28-17.65 215.75-21.23 216.23-24.8 216.5-27 216.78-29.2 216.88-29.9L216.88-29.9Q218.93-31.2 221.63-31.2L221.63-31.2Q222.88-31.2 224.03-30.95L224.03-30.95 220.88-9.6Q220.43-6.75 219.63-4.85L219.63-4.85Q221.18-4.45 222.13-4.45L222.13-4.45Q227.88-4.45 231.03-8.8L231.03-8.8Q234.28-13.35 234.28-19.8L234.28-19.8Q234.28-28.05 228.33-31.65L228.33-31.65Q225.03-33.65 221.08-33.65L221.08-33.65Q216.03-33.65 213.08-30.9L213.08-30.9Q211.38-29.35 211.38-27.15L211.38-27.15Q211.38-26 212.08-24.98 212.78-23.95 214.53-23.8L214.53-23.8 214.03-20.55Q210.38-20.75 208.6-22.58 206.83-24.4 206.83-26.8ZM209.78-6.15L209.78-6.15Q209.78-4.35 211.48-4.35L211.48-4.35Q212.18-4.35 212.95-5.28 213.73-6.2 214.03-8.2L214.03-8.2 214.48-11.3Q209.78-8.65 209.78-6.15ZM247.22-36.83Q248.37-38 250.02-38 251.67-38 252.85-36.83 254.02-35.65 254.02-34 254.02-32.35 252.85-31.2 251.67-30.05 250.02-30.05 248.37-30.05 247.22-31.2 246.07-32.35 246.07-34 246.07-35.65 247.22-36.83ZM245.17-22.15Q245.67-23.05 247.07-23.53 248.47-24 249.85-24 251.22-24 252.27-23.65L252.27-23.65Q250.32-8.6 250.32-8.45L250.32-8.45Q250.07-7.45 250.07-6.78 250.07-6.1 250.17-5.6L250.17-5.6Q250.37-4.3 252-4.3 253.62-4.3 255-6.43 256.37-8.55 257.07-11.25L257.07-11.25Q257.42-11.05 258.17-10.05 258.92-9.05 259.07-8.55L259.07-8.55Q258.07-4.55 255.67-2.1L255.67-2.1Q253.27 0.35 249.92 0.35 246.57 0.35 244.95-1.3 243.32-2.95 243.32-5.55L243.32-5.55Q243.32-6.1 243.37-6.7L243.37-6.7 245.17-22.15ZM268.42-24.05L268.42-24.05Q271.17-24.05 273.47-23.15L273.47-23.15Q275.02-24.1 276.72-24.1 278.42-24.1 279.42-23.65L279.42-23.65 277.62-9.55Q281.32-12.4 283.22-14.75L283.22-14.75 284.67-11.7Q281.82-8.7 277.07-5.3L277.07-5.3 275.72 5.15Q275.17 9.85 272.65 12.38 270.12 14.9 266.12 14.9L266.12 14.9Q263.82 14.9 261.62 13.4L261.62 13.4Q259.32 11.8 259.32 8.25L259.32 8.25Q259.32 3.9 263.47 0.3L263.47 0.3Q259.92 0.05 257.37-2.65 254.82-5.35 254.82-9.7L254.82-9.7Q254.82-16.25 258.67-20.15 262.52-24.05 268.42-24.05ZM269.17-20.15L269.17-20.15Q265.97-20.15 264.1-17.73 262.22-15.3 261.87-10.5L261.87-10.5Q261.82-10.05 261.82-9.65L261.82-9.65Q261.82-7.2 263-5.75 264.17-4.3 266.02-4.3L266.02-4.3Q269.17-4.3 270.77-8.7L270.77-8.7 272.02-19.55Q270.47-20.15 269.17-20.15ZM263.17 7.5L263.17 7.5Q263.17 8.85 263.95 9.63 264.72 10.4 265.72 10.4L265.72 10.4Q268.52 10.4 268.97 6.85L268.97 6.85 269.82-0.65Q263.17 3.3 263.17 7.5ZM285.37-36.83Q286.52-38 288.17-38 289.82-38 290.99-36.83 292.17-35.65 292.17-34 292.17-32.35 290.99-31.2 289.82-30.05 288.17-30.05 286.52-30.05 285.37-31.2 284.22-32.35 284.22-34 284.22-35.65 285.37-36.83ZM283.32-22.15Q283.82-23.05 285.22-23.53 286.62-24 287.99-24 289.37-24 290.42-23.65L290.42-23.65Q288.47-8.6 288.47-8.45L288.47-8.45Q288.22-7.45 288.22-6.78 288.22-6.1 288.32-5.6L288.32-5.6Q288.52-4.3 290.14-4.3 291.77-4.3 293.14-6.43 294.52-8.55 295.22-11.25L295.22-11.25Q295.57-11.05 296.32-10.05 297.07-9.05 297.22-8.55L297.22-8.55Q296.22-4.55 293.82-2.1L293.82-2.1Q291.42 0.35 288.07 0.35 284.72 0.35 283.09-1.3 281.47-2.95 281.47-5.55L281.47-5.55Q281.47-6.1 281.52-6.7L281.52-6.7 283.32-22.15ZM304.42-34.8L304.42-34.8Q304.42-34.5 303.07-24.05L303.07-24.05 310.42-24.05 310.42-20.2 302.57-20.2 302.42-18.95Q308.27-14.05 308.27-8.25L308.27-8.25Q308.27-3.7 305.94-1.7 303.62 0.3 300.37 0.3 297.12 0.3 295.62-1.43 294.12-3.15 294.12-5.6L294.12-5.6Q294.12-6.15 294.22-6.8L294.22-6.8 295.77-20.1 295.57-20.2 291.52-20.2Q291.47-20.7 291.47-21.83 291.47-22.95 291.92-24.05L291.92-24.05 296.22-24.05 297.82-37.65Q298.87-38.05 300.62-38.05L300.62-38.05Q304.42-38.05 304.42-34.8ZM304.92-8.3L304.92-8.3Q304.92-11.75 301.92-15.1L301.92-15.1Q301.02-7.65 301.02-6.5L301.02-6.5Q301.02-4.25 302.47-4.25L302.47-4.25Q303.52-4.25 304.22-5.23 304.92-6.2 304.92-8.3ZM332.56 0.25L332.56 0.25Q327.96 0.25 326.46-2.95L326.46-2.95Q323.86 0.3 319.79 0.3 315.71 0.3 312.94-2.45 310.16-5.2 310.16-9.7L310.16-9.7Q310.16-16.25 314.01-20.15 317.86-24.05 323.76-24.05L323.76-24.05Q323.91-24.05 324.06-24.05L324.06-24.05Q326.56-24.05 328.66-23.2L328.66-23.2Q330.01-24.05 331.94-24.05 333.86-24.05 334.71-23.55L334.71-23.55Q334.26-19.85 333.76-16.28 333.26-12.7 333.06-11.2L333.06-11.2Q332.61-7.8 332.61-6.3L332.61-6.3Q332.61-4.3 334.21-4.3L334.21-4.3Q335.46-4.3 336.86-5.98 338.26-7.65 339.31-11.25L339.31-11.25Q340.76-9.95 341.31-8.35L341.31-8.35Q339.86-3.6 337.41-1.68 334.96 0.25 332.56 0.25ZM324.51-20.15L324.51-20.15Q321.31-20.15 319.44-17.73 317.56-15.3 317.21-10.5L317.21-10.5Q317.16-10.05 317.16-9.65L317.16-9.65Q317.16-7.2 318.34-5.75 319.51-4.3 321.36-4.3L321.36-4.3Q324.51-4.3 326.11-8.75L326.11-8.75 327.31-19.55Q325.86-20.15 324.51-20.15ZM344.44 0.35Q341.36 0.35 339.61-1.38 337.86-3.1 337.86-6.1L337.86-6.1Q337.86-6.9 340.56-29.85L340.56-29.85Q341.26-35.75 344.31-37.3L344.31-37.3Q345.71-38.05 347.66-38.05L347.66-38.05Q354.26-38.05 354.26-31.95L354.26-31.95Q354.26-31.45 354.21-30.9L354.21-30.9Q353.71-24.2 345.81-17.25L345.81-17.25Q345.56-14.8 345.26-12.5L345.26-12.5Q344.66-7.35 344.66-6.8L344.66-6.8Q344.66-4.2 346.91-4.2L346.91-4.2Q349.36-4.2 351.49-7.03 353.61-9.85 354.76-14.25L354.76-14.25Q355.21-14.1 356.01-13.43 356.81-12.75 357.11-12.25L357.11-12.25Q356.31-8.1 353.51-4.3L353.51-4.3Q352.11-2.35 349.96-1.1L349.96-1.1Q347.51 0.35 344.44 0.35ZM346.51-23.75L346.36-22.25Q350.96-27.3 350.96-31.3L350.96-31.3Q350.96-33.7 349.16-33.7L349.16-33.7Q348.01-33.6 347.64-32.2 347.26-30.8 346.94-27.65 346.61-24.5 346.51-23.75L346.51-23.75ZM391.96-30.8Q392.51-34.65 394.16-36.35 395.81-38.05 398.51-38.05 401.21-38.05 402.48-36.48 403.76-34.9 403.76-33.3L403.76-33.3Q403.76-32.8 403.66-32.3L403.66-32.3Q402.56-26.75 396.31-23.65L396.31-23.65 392.81 0 384.41 0 378.46-26.35 375.71-6.85Q375.16-3.15 373.43-1.4 371.71 0.35 369.41 0.35 367.11 0.35 365.58-1 364.06-2.35 363.71-4.85L363.71-4.85Q363.66-5.25 363.66-5.65L363.66-5.65Q363.66-10.6 371.11-14.15L371.11-14.15 373.26-30.25Q374.51-30.8 375.43-30.8 376.36-30.8 377.01-30.65L377.01-30.65Q375.86-32.45 373.36-32.45 370.86-32.45 368.96-29.85L368.96-29.85 368.01-34.15Q368.96-35.45 371.33-36.77 373.71-38.1 376.58-38.1 379.46-38.1 381.46-36.38 383.46-34.65 384.36-30.6L384.36-30.6 389.06-10.8 391.96-30.8ZM396.96-27.95L396.96-27.95Q400.06-30.15 400.06-32.05L400.06-32.05Q400.06-32.4 399.81-32.85 399.56-33.3 399.06-33.3L399.06-33.3Q398.11-33.3 397.76-32.25L397.76-32.25Q397.26-30.8 396.96-27.95ZM370.61-10Q367.16-8.05 367.16-6.2 367.16-4.35 368.51-4.35L368.51-4.35Q369.41-4.35 369.81-5.53 370.21-6.7 370.56-9.75L370.56-9.75 370.61-10ZM413.6-24.05L413.6-24.05Q418.2-24.05 421.28-21.1 424.35-18.15 424.35-13.9L424.35-13.9Q424.35-7.45 420.58-3.58 416.8 0.3 411.45 0.3 406.1 0.3 402.98-2.75 399.85-5.8 399.85-10.3L399.85-10.3Q399.85-16.6 403.7-20.3L403.7-20.3Q407.6-24.05 413.6-24.05ZM412.63-20Q410.25-20 408.65-17.3 407.05-14.6 406.9-10.5L406.9-10.5Q406.9-7.6 408.08-5.7 409.25-3.8 411.65-3.8 414.05-3.8 415.68-6.45 417.3-9.1 417.3-12.5 417.3-15.9 416.15-17.9L416.15-17.9Q415-20 412.63-20ZM447.05 0L440.6 0 442.5-16.6Q442.5-18 441.83-18.93 441.15-19.85 439.45-19.85 437.75-19.85 436.65-18.23 435.55-16.6 435.25-14.8L435.25-14.8Q433.5-2.35 433.3 0L433.3 0 426.6 0 429.35-23.5Q431.45-24.05 432.55-24.05L432.55-24.05Q435.7-24.05 436-21.95L436-21.95Q438.45-24.05 441.35-24.05L441.35-24.05Q447.15-24.05 448.75-20.6L448.75-20.6Q451.2-24.1 455.75-24.1L455.75-24.1Q459.1-24.1 461.05-22.38 463-20.65 463-18.05L463-18.05Q463-17.3 462.7-15.4L462.7-15.4Q461.55-7.9 461.55-6.6L461.55-6.6Q461.55-4.25 463.1-4.25L463.1-4.25Q464.4-4.25 465.88-5.98 467.35-7.7 468.25-11.3L468.25-11.3Q469.95-9.5 470.3-8.45L470.3-8.45Q467.7 0.25 461.1 0.25L461.1 0.25Q458 0.25 456.5-1.65 455-3.55 455-5.65L455-5.65 456.2-16.7Q456.2-18.05 455.5-18.95 454.8-19.85 453.28-19.85 451.75-19.85 450.6-18.7 449.45-17.55 449-15.75L449-15.75Q447.5-3.05 447.05 0L447.05 0ZM488.95 0.25L488.95 0.25Q484.35 0.25 482.85-2.95L482.85-2.95Q480.25 0.3 476.17 0.3 472.1 0.3 469.32-2.45 466.55-5.2 466.55-9.7L466.55-9.7Q466.55-16.25 470.4-20.15 474.25-24.05 480.15-24.05L480.15-24.05Q480.3-24.05 480.45-24.05L480.45-24.05Q482.95-24.05 485.05-23.2L485.05-23.2Q486.4-24.05 488.32-24.05 490.25-24.05 491.1-23.55L491.1-23.55Q490.65-19.85 490.15-16.28 489.65-12.7 489.45-11.2L489.45-11.2Q489-7.8 489-6.3L489-6.3Q489-4.3 490.6-4.3L490.6-4.3Q491.85-4.3 493.25-5.98 494.65-7.65 495.7-11.25L495.7-11.25Q497.15-9.95 497.7-8.35L497.7-8.35Q496.25-3.6 493.8-1.68 491.35 0.25 488.95 0.25ZM480.9-20.15L480.9-20.15Q477.7-20.15 475.82-17.73 473.95-15.3 473.6-10.5L473.6-10.5Q473.55-10.05 473.55-9.65L473.55-9.65Q473.55-7.2 474.72-5.75 475.9-4.3 477.75-4.3L477.75-4.3Q480.9-4.3 482.5-8.75L482.5-8.75 483.7-19.55Q482.25-20.15 480.9-20.15ZM513.2-36.05Q513.55-36.9 514.77-37.48 516-38.05 517.72-38.05 519.45-38.05 520.3-37.55L520.3-37.55Q519.8-33.65 518.7-25.3L518.7-25.3Q516.4-7.85 516.4-6.08 516.4-4.3 517.9-4.3L517.9-4.3Q519.2-4.3 520.6-5.93 522-7.55 523.15-11.25L523.15-11.25Q524.55-9.9 525.1-8.3L525.1-8.3Q523.3-2.35 519.45-0.6L519.45-0.6Q517.7 0.25 516.15 0.25L516.15 0.25Q511.7 0.25 510.2-2.95L510.2-2.95Q507.6 0.3 503.55 0.3 499.5 0.3 496.72-2.45 493.95-5.2 493.95-9.7L493.95-9.7Q493.95-16.25 497.8-20.15 501.65-24.05 507.55-24.05L507.55-24.05Q507.7-24.05 507.85-24.05L507.85-24.05Q509.9-24.05 511.7-23.45L511.7-23.45 513.2-36.05ZM508.3-20.15L508.3-20.15Q505.1-20.15 503.22-17.73 501.35-15.3 501-10.5L501-10.5Q500.95-10.05 500.95-9.65L500.95-9.65Q500.95-7.2 502.12-5.75 503.3-4.3 505.15-4.3L505.15-4.3Q508.3-4.3 509.9-8.75L509.9-8.75 511.2-19.5Q509.55-20.15 508.3-20.15Z" opacity="1" transform="matrix(1,0,0,1,0,0)" fill="#dedad7" class="slogan-text-1" data-fill-palette-color="secondary" id="text-1"></path></svg></g></svg></g></svg></g></svg></g><g transform="matrix(1,0,0,1,0,46.27585794800781)"><svg viewBox="0 0 245.65351679999995 188.07847379999995" height="188.07847379999995" width="245.65351679999995"><g><svg xmlns="http://www.w3.org/2000/svg" xmlns:xlink="http://www.w3.org/1999/xlink" version="1.1" x="0" y="0" viewBox="0 15 128 98" style="enable-background:new 0 0 128 128;" xml:space="preserve" height="188.07847379999995" width="245.65351679999995" class="icon-icon-0" data-fill-palette-color="accent" id="icon-0"><path d="M124 49.076V23c0-4.4-3.6-8-8-8H8c-4.4 0-8 3.6-8 8v82c0 4.4 3.6 8 8 8h108c4.4 0 8-3.6 8-8V78.924c2.544-1.497 4-4.405 4-7.75V56.828C128 53.483 126.544 50.574 124 49.076zM79 35c1.103 0 2 0.897 2 2 0 1.102-0.897 2-2 2s-2-0.898-2-2C77 35.897 77.897 35 79 35zM62 28c1.103 0 2 0.897 2 2 0 1.102-0.897 2-2 2s-2-0.898-2-2C60 28.897 60.897 28 62 28zM77 90c-1.103 0-2-0.898-2-2 0-1.103 0.897-2 2-2s2 0.897 2 2C79 89.102 78.103 90 77 90zM120 105c0 2.206-1.794 4-4 4H96V93h6.349c0.825 2.329 3.04 4 5.651 4 3.313 0 6-2.687 6-6 0-3.314-2.687-6-6-6-2.611 0-4.827 1.671-5.651 4H94c-1.104 0-2 0.896-2 2v18H79V93.651C81.329 92.826 83 90.611 83 88c0-3.314-2.687-6-6-6s-6 2.686-6 6c0 2.611 1.671 4.826 4 5.651V109H8c-2.206 0-4-1.794-4-4V93h42.349C47.173 95.329 49.389 97 52 97c3.313 0 6-2.687 6-6 0-3.314-2.687-6-6-6-2.611 0-4.827 1.671-5.651 4H4V76h54.349C59.173 78.329 61.389 80 64 80c3.313 0 6-2.687 6-6 0-3.314-2.687-6-6-6-2.611 0-4.827 1.671-5.651 4H4V58h54.349C59.173 60.329 61.389 62 64 62c3.313 0 6-2.687 6-6 0-3.314-2.687-6-6-6-2.611 0-4.827 1.671-5.651 4H4V39h36.349C41.173 41.329 43.389 43 46 43c3.313 0 6-2.687 6-6 0-3.314-2.687-6-6-6-2.611 0-4.827 1.671-5.651 4H4V23c0-2.206 1.794-4 4-4h52v5.349C57.671 25.174 56 27.389 56 30c0 3.313 2.687 6 6 6s6-2.687 6-6c0-2.611-1.671-4.826-4-5.651V19h13v12.349C74.671 32.174 73 34.389 73 37c0 3.313 2.687 6 6 6s6-2.687 6-6c0-2.611-1.671-4.826-4-5.651V19h11v18c0 1.104 0.896 2 2 2h8.349c0.825 2.329 3.04 4 5.651 4 3.313 0 6-2.687 6-6 0-3.314-2.687-6-6-6-2.611 0-4.827 1.671-5.651 4H96V19h20c2.206 0 4 1.794 4 4v25.007C119.952 48.006 119.906 48 119.857 48H94.286C84.187 48 78 55.163 78 64s6.187 16 16.286 16h25.571c0.049 0 0.094-0.006 0.143-0.007V105zM106 91c0-1.103 0.897-2 2-2s2 0.897 2 2c0 1.102-0.897 2-2 2S106 92.102 106 91zM50 91c0-1.103 0.897-2 2-2s2 0.897 2 2c0 1.102-0.897 2-2 2S50 92.102 50 91zM62 74c0-1.103 0.897-2 2-2s2 0.897 2 2c0 1.102-0.897 2-2 2S62 75.102 62 74zM62 56c0-1.103 0.897-2 2-2s2 0.897 2 2c0 1.102-0.897 2-2 2S62 57.102 62 56zM44 37c0-1.103 0.897-2 2-2s2 0.897 2 2c0 1.102-0.897 2-2 2S44 38.102 44 37zM106 37c0-1.103 0.897-2 2-2s2 0.897 2 2c0 1.102-0.897 2-2 2S106 38.102 106 37zM124 71.174C124 73.507 122.912 76 119.857 76H94.286C85.799 76 82 69.973 82 64c0-5.973 3.799-12 12.286-12h25.571C122.912 52 124 54.494 124 56.828V71.174z" fill="#b4bfc5" data-fill-palette-color="accent"></path><path d="M94 58c-3.309 0-6 2.691-6 6s2.691 6 6 6 6-2.691 6-6S97.309 58 94 58zM94 66c-1.103 0-2-0.898-2-2 0-1.103 0.897-2 2-2s2 0.897 2 2C96 65.102 95.103 66 94 66z" fill="#b4bfc5" data-fill-palette-color="accent"></path></svg></g></svg></g></svg></g><defs></defs></svg><rect width="395.52" height="160.92328451007486" fill="none" stroke="none" visibility="hidden"></rect></g></svg></g></svg>